<svg width="32" height="32" viewBox="0 0 32 32" fill="none" xmlns="http://www.w3.org/2000/svg">
<path fill-rule="evenodd" clip-rule="evenodd" d="M5.36879 4.87143C6.09203 4.27059 7.00543 4 8 4H24C24.9538 4 25.863 4.24975 26.5949 4.83747C27.3286 5.42668 27.7884 6.27885 27.9809 7.30533L29.9785 16.794C29.9928 16.8617 30 16.9308 30 17V24L30 24.0029C29.9969 25.0621 29.5748 26.0769 28.8259 26.8259C28.0769 27.5748 27.0621 27.9969 26.0029 28L26 28H6L5.9971 28C4.93795 27.9969 3.92306 27.5748 3.17412 26.8259C2.42519 26.0769 2.00308 25.0621 2 24.0029L2 24V17C2 16.9308 2.00719 16.8617 2.02145 16.794L4.01974 7.30213C4.21066 6.31802 4.64835 5.46996 5.36879 4.87143ZM6.64683 6.40982C6.35385 6.65321 6.10452 7.0518 5.98201 7.68885L5.97855 7.70601L4.23245 16H27.7676L26.0215 7.70601L26.0167 7.68209C25.8953 7.02668 25.6371 6.63341 25.3426 6.3969C25.0433 6.1565 24.6087 6 24 6H8C7.36957 6 6.93922 6.16691 6.64683 6.40982ZM28 18H20.899C20.7044 18.9534 20.2339 19.8372 19.5355 20.5355C18.5979 21.4732 17.3261 22 16 22C14.6739 22 13.4021 21.4732 12.4645 20.5355C11.7661 19.8372 11.2956 18.9534 11.101 18H4V23.9984C4.00189 24.5287 4.21336 25.0367 4.58834 25.4117C4.96334 25.7867 5.47141 25.9981 6.00171 26H25.9983C26.5286 25.9981 27.0367 25.7867 27.4117 25.4117C27.7867 25.0367 27.9981 24.5286 28 23.9983V18ZM13.1716 18C13.3193 18.4179 13.5593 18.8019 13.8787 19.1213C14.4413 19.6839 15.2044 20 16 20C16.7956 20 17.5587 19.6839 18.1213 19.1213C18.4407 18.8019 18.6807 18.4179 18.8284 18H13.1716ZM8 9C8 8.44772 8.44772 8 9 8H23C23.5523 8 24 8.44772 24 9C24 9.55228 23.5523 10 23 10H9C8.44772 10 8 9.55228 8 9ZM7 13C7 12.4477 7.44772 12 8 12H24C24.5523 12 25 12.4477 25 13C25 13.5523 24.5523 14 24 14H8C7.44772 14 7 13.5523 7 13Z" fill="#0061FF"/>
</svg>
